<svg xmlns="http://www.w3.org/2000/svg" width="1600" height="900" viewBox="0 0 1600 900" fill="none">
  <defs>
    <linearGradient id="bg" x1="0" y1="0" x2="1600" y2="900" gradientUnits="userSpaceOnUse">
      <stop stop-color="#F5F3FF"/>
      <stop offset="1" stop-color="#ECFEFF"/>
    </linearGradient>
    <linearGradient id="grow" x1="0" y1="0" x2="1" y2="0">
      <stop stop-color="#6D5AE6"/>
      <stop offset="1" stop-color="#14B8A6"/>
    </linearGradient>
  </defs>
  <rect width="1600" height="900" fill="url(#bg)"/>
  <circle cx="1400" cy="120" r="320" fill="#8B5CF6" fill-opacity="0.10"/>
  <circle cx="160" cy="820" r="300" fill="#14B8A6" fill-opacity="0.10"/>

  <!-- Left: title block -->
  <path d="M132 262l22 22-22 22-22-22z" fill="#6D5AE6"/>
  <text x="172" y="298" fill="#0F172A" font-family="Segoe UI, Arial, sans-serif" font-size="40" font-weight="700">RecruitPro</text>
  <text x="110" y="410" fill="#0F172A" font-family="Segoe UI, Arial, sans-serif" font-size="80" font-weight="800">Hire Smarter.</text>
  <text x="110" y="500" fill="url(#grow)" font-family="Segoe UI, Arial, sans-serif" font-size="80" font-weight="800">Grow Faster.</text>
  <text x="110" y="560" fill="#475569" font-family="Segoe UI, Arial, sans-serif" font-size="26">Multi-tenant recruitment platform · job posting to offer</text>
  <g font-family="Segoe UI, Arial, sans-serif" font-size="22" font-weight="600">
    <rect x="110" y="600" width="130" height="44" rx="22" fill="#FEE2E2" stroke="#EF4444" stroke-opacity="0.5"/>
    <text x="175" y="629" text-anchor="middle" fill="#B91C1C">Angular</text>
    <rect x="254" y="600" width="124" height="44" rx="22" fill="#FCE7F3" stroke="#E0234E" stroke-opacity="0.5"/>
    <text x="316" y="629" text-anchor="middle" fill="#BE123C">NestJS</text>
    <rect x="392" y="600" width="160" height="44" rx="22" fill="#DBEAFE" stroke="#336791" stroke-opacity="0.5"/>
    <text x="472" y="629" text-anchor="middle" fill="#1E3A8A">PostgreSQL</text>
    <rect x="566" y="600" width="110" height="44" rx="22" fill="#FEF2F2" stroke="#DC382D" stroke-opacity="0.5"/>
    <text x="621" y="629" text-anchor="middle" fill="#B91C1C">Redis</text>
  </g>

  <!-- Right: applicant pipeline board -->
  <g transform="translate(850 190)" font-family="Segoe UI, Arial, sans-serif">
    <rect width="660" height="520" rx="22" fill="#FFFFFF" stroke="#E2E8F0"/>
    <rect x="28" y="28" width="200" height="16" rx="6" fill="#0F172A"/>
    <rect x="28" y="56" width="140" height="9" rx="4.5" fill="#94A3B8"/>
    <rect x="512" y="26" width="120" height="38" rx="9" fill="#6D5AE6"/>
    <text x="572" y="51" text-anchor="middle" fill="#FFFFFF" font-size="15" font-weight="600">+ Post Job</text>

    <!-- Columns -->
    <g>
      <rect x="28" y="92" width="190" height="400" rx="14" fill="#F8FAFC"/>
      <text x="46" y="122" fill="#475569" font-size="15" font-weight="700">APPLIED · 24</text>
      <rect x="44" y="140" width="158" height="76" rx="10" fill="#FFFFFF" stroke="#E2E8F0"/>
      <circle cx="68" cy="166" r="12" fill="#C7D2FE"/>
      <rect x="88" y="160" width="96" height="9" rx="4.5" fill="#1E293B"/>
      <rect x="60" y="192" width="120" height="7" rx="3.5" fill="#CBD5E1"/>
      <rect x="44" y="228" width="158" height="76" rx="10" fill="#FFFFFF" stroke="#E2E8F0"/>
      <circle cx="68" cy="254" r="12" fill="#FDE68A"/>
      <rect x="88" y="248" width="80" height="9" rx="4.5" fill="#1E293B"/>
      <rect x="60" y="280" width="110" height="7" rx="3.5" fill="#CBD5E1"/>
      <rect x="44" y="316" width="158" height="76" rx="10" fill="#FFFFFF" stroke="#E2E8F0"/>
      <circle cx="68" cy="342" r="12" fill="#A7F3D0"/>
      <rect x="88" y="336" width="90" height="9" rx="4.5" fill="#1E293B"/>
      <rect x="60" y="368" width="100" height="7" rx="3.5" fill="#CBD5E1"/>
    </g>
    <g>
      <rect x="235" y="92" width="190" height="400" rx="14" fill="#F5F3FF"/>
      <text x="253" y="122" fill="#6D28D9" font-size="15" font-weight="700">INTERVIEW · 8</text>
      <rect x="251" y="140" width="158" height="96" rx="10" fill="#FFFFFF" stroke="#DDD6FE"/>
      <circle cx="275" cy="166" r="12" fill="#FBCFE8"/>
      <rect x="295" y="160" width="92" height="9" rx="4.5" fill="#1E293B"/>
      <rect x="267" y="192" width="84" height="22" rx="6" fill="#EDE9FE"/>
      <text x="309" y="208" text-anchor="middle" fill="#6D28D9" font-size="12" font-weight="600">Technical</text>
      <rect x="251" y="248" width="158" height="96" rx="10" fill="#FFFFFF" stroke="#DDD6FE"/>
      <circle cx="275" cy="274" r="12" fill="#BAE6FD"/>
      <rect x="295" y="268" width="76" height="9" rx="4.5" fill="#1E293B"/>
      <rect x="267" y="300" width="70" height="22" rx="6" fill="#EDE9FE"/>
      <text x="302" y="316" text-anchor="middle" fill="#6D28D9" font-size="12" font-weight="600">Video</text>
    </g>
    <g>
      <rect x="442" y="92" width="190" height="400" rx="14" fill="#F0FDFA"/>
      <text x="460" y="122" fill="#0F766E" font-size="15" font-weight="700">OFFERED · 3</text>
      <rect x="458" y="140" width="158" height="96" rx="10" fill="#FFFFFF" stroke="#99F6E4"/>
      <circle cx="482" cy="166" r="12" fill="#C7D2FE"/>
      <rect x="502" y="160" width="88" height="9" rx="4.5" fill="#1E293B"/>
      <rect x="474" y="192" width="92" height="22" rx="6" fill="#CCFBF1"/>
      <text x="520" y="208" text-anchor="middle" fill="#0F766E" font-size="12" font-weight="600">✓ Accepted</text>
      <rect x="458" y="252" width="158" height="120" rx="10" fill="url(#grow)"/>
      <text x="474" y="286" fill="#FFFFFF" font-size="14" font-weight="600" fill-opacity="0.85">Time to hire</text>
      <text x="474" y="332" fill="#FFFFFF" font-size="38" font-weight="800">-32%</text>
      <rect x="474" y="348" width="110" height="7" rx="3.5" fill="#FFFFFF" fill-opacity="0.5"/>
    </g>
  </g>
</svg>
